<?xml version="1.0" encoding="utf-8"?>
<!-- Generator: Adobe Illustrator 28.1.0, SVG Export Plug-In . SVG Version: 6.00 Build 0)  -->
<svg version="1.1" xmlns="http://www.w3.org/2000/svg" xmlns:xlink="http://www.w3.org/1999/xlink" x="0px" y="0px"
	 viewBox="0 0 500 500" style="enable-background:new 0 0 500 500;" xml:space="preserve">
<style type="text/css">
	.st0{fill:#ADADD2;}
	.st1{fill:#D8D8F5;}
	.st2{fill:#8C8CBB;}
	.st3{fill:#71ADAE;}
	.st4{fill:#4E807E;}
	.st5{fill:none;stroke:#4E807E;stroke-width:0.5;stroke-linecap:round;stroke-miterlimit:10;}
	.st6{fill:#80CCB2;}
	.st7{fill:#C8C8E7;}
	.st8{fill:#30304C;}
	.st9{fill:#7F87E5;}
	.st10{fill:#5865BC;}
	.st11{fill:none;stroke:#5865BC;stroke-width:0.5;stroke-linecap:round;stroke-linejoin:round;stroke-miterlimit:10;}
	.st12{fill:none;stroke:#4F4F85;stroke-width:2;stroke-linecap:round;stroke-linejoin:round;stroke-miterlimit:10;}
	.st13{fill:#FFFFFF;}
	.st14{fill:#DDA99D;}
	.st15{fill:#C66F62;}
	.st16{fill:none;stroke:#C66F62;stroke-width:0.5;stroke-linecap:round;stroke-miterlimit:10;}
	.st17{fill:none;stroke:#C66F62;stroke-width:0.5;stroke-linecap:round;stroke-linejoin:round;stroke-miterlimit:10;}
	.st18{fill:none;stroke:#E3E3E8;stroke-linecap:round;stroke-linejoin:round;stroke-miterlimit:10;}
	.st19{fill:#8F3D5D;}
	.st20{fill:#3F3F65;}
	.st21{fill:none;stroke:#1D1D33;stroke-width:0.5;stroke-linecap:round;stroke-linejoin:round;stroke-miterlimit:10;}
	.st22{fill:#151525;}
	.st23{fill:none;stroke:#30304C;stroke-width:0.5;stroke-miterlimit:10;}
	.st24{fill:#6868A1;}
	.st25{fill:#8C8CBD;}
	.st26{fill:#C95958;}
	.st27{fill:#DF6666;}
	.st28{fill:none;stroke:#7B2C52;stroke-width:0.5;stroke-linecap:round;stroke-linejoin:round;stroke-miterlimit:10;}
	.st29{fill:#1D1D33;}
	.st30{fill:#444475;}
	.st31{fill:#EDC06D;}
	.st32{fill:#E3A64B;}
	.st33{fill:#E38686;}
	.st34{fill:#DE8B48;}
	.st35{fill:none;stroke:#DE8B48;stroke-width:0.5;stroke-linecap:round;stroke-linejoin:round;stroke-miterlimit:10;}
	.st36{fill:#E3E3E8;}
</style>
<g id="BACKGROUND">
</g>
<g id="OBJECTS">
	<g>
		<g>
			<rect x="227.4" y="173.8" class="st0" width="40.9" height="58.7"/>
			
				<rect x="225.9" y="190.2" transform="matrix(-1.836970e-16 1 -1 -1.836970e-16 450.9355 -44.6417)" class="st1" width="43.7" height="25.9"/>
		</g>
		<g>
			<rect x="255.4" y="100.4" class="st0" width="40.9" height="58.7"/>
			
				<rect x="254" y="116.8" transform="matrix(-1.836970e-16 1 -1 -1.836970e-16 405.5468 -146.0754)" class="st1" width="43.7" height="25.9"/>
		</g>
		<g>
			<rect x="171.9" y="145.2" class="st0" width="40.9" height="58.7"/>
			
				<rect x="170.5" y="161.6" transform="matrix(-1.836970e-16 1 -1 -1.836970e-16 366.8481 -17.7606)" class="st1" width="43.7" height="25.9"/>
		</g>
	</g>
	<g>
		<g>
			<path class="st0" d="M461.2,386.8c0,1.3-3,2.5-8.6,3.6c-1.3,0.3-2.7,0.5-4.3,0.8c-4.8,0.8-11,1.6-18.2,2.3
				c-1.4,0.1-2.8,0.3-4.3,0.4c-5.5,0.5-11.6,1-18.2,1.4c-1.4,0.1-2.8,0.2-4.3,0.3c-5.7,0.4-11.8,0.7-18.2,1
				c-1.4,0.1-2.8,0.1-4.3,0.2c-5.8,0.3-11.9,0.5-18.2,0.8c-1.4,0.1-2.8,0.1-4.3,0.2c-5.9,0.2-12,0.4-18.2,0.6
				c-1.4,0-2.8,0.1-4.3,0.1c-5.9,0.2-12,0.3-18.2,0.4c-1.4,0-2.8,0.1-4.3,0.1c-5.9,0.1-12,0.2-18.2,0.3c-1.4,0-2.9,0-4.3,0.1
				c-6,0.1-12,0.1-18.2,0.2c-1.4,0-2.9,0-4.3,0c-6,0-12.1,0.1-18.2,0.1H250c-1.3,0-2.6,0-3.8,0c-6.1,0-12.2,0-18.2-0.1
				c-1.4,0-2.9,0-4.3,0c-6.1,0-12.2-0.1-18.2-0.2c-1.4,0-2.9,0-4.3-0.1c-6.2-0.1-12.2-0.2-18.2-0.3c-1.4,0-2.9-0.1-4.3-0.1
				c-6.2-0.1-12.3-0.3-18.2-0.5c-1.4,0-2.9-0.1-4.3-0.1c-6.2-0.2-12.3-0.4-18.2-0.6c-1.4-0.1-2.9-0.1-4.3-0.2
				c-6.3-0.2-12.4-0.5-18.2-0.8c-1.4-0.1-2.9-0.1-4.3-0.2c-6.4-0.3-12.5-0.7-18.2-1.1c-1.5-0.1-2.9-0.2-4.3-0.3
				c-6.6-0.5-12.7-1-18.2-1.5c-1.5-0.1-2.9-0.3-4.3-0.4c-17.6-1.9-27.7-4-27.7-6.4c0-2.3,10.1-4.5,27.7-6.4c1.4-0.1,2.8-0.3,4.3-0.4
				c5.5-0.5,11.5-1,18.2-1.5c1.4-0.1,2.8-0.2,4.3-0.3c5.7-0.4,11.8-0.7,18.2-1.1c1.4-0.1,2.8-0.1,4.3-0.2c5.8-0.3,11.9-0.6,18.2-0.8
				c1.4-0.1,2.8-0.1,4.3-0.2c5.9-0.2,11.9-0.4,18.2-0.6c1.4,0,2.8-0.1,4.3-0.1c5.9-0.2,12-0.3,18.2-0.5c1.4,0,2.8-0.1,4.3-0.1
				c5.9-0.1,12-0.2,18.2-0.3c1.4,0,2.8,0,4.3-0.1c6-0.1,12-0.1,18.2-0.2c1.4,0,2.8,0,4.3,0c6,0,12.1-0.1,18.2-0.1c1.3,0,2.5,0,3.8,0
				h0.5c6.1,0,12.2,0,18.2,0c1.4,0,2.9,0,4.3,0c6.1,0,12.2,0.1,18.2,0.2c1.4,0,2.9,0,4.3,0.1c6.2,0.1,12.2,0.2,18.2,0.3
				c1.4,0,2.9,0.1,4.3,0.1c6.2,0.1,12.3,0.3,18.2,0.4c1.4,0,2.9,0.1,4.3,0.1c6.2,0.2,12.3,0.4,18.2,0.6c1.4,0.1,2.9,0.1,4.3,0.2
				c6.3,0.2,12.4,0.5,18.2,0.8c1.4,0.1,2.9,0.1,4.3,0.2c6.4,0.3,12.5,0.7,18.2,1c1.5,0.1,2.9,0.2,4.3,0.3c6.6,0.5,12.7,0.9,18.2,1.4
				c1.5,0.1,2.9,0.3,4.3,0.4c7.2,0.7,13.4,1.5,18.2,2.3c1.6,0.3,3,0.5,4.3,0.8C458.2,384.3,461.2,385.5,461.2,386.8z"/>
			<g>
				<path class="st2" d="M70.7,380v13.6c-1.5-0.1-2.9-0.3-4.3-0.4v-12.7C67.8,380.3,69.2,380.1,70.7,380z"/>
				<path class="st2" d="M93.2,378.2v17.2c-1.5-0.1-2.9-0.2-4.3-0.3v-16.6C90.3,378.4,91.7,378.3,93.2,378.2z"/>
				<path class="st2" d="M115.6,376.9v19.8c-1.4-0.1-2.9-0.1-4.3-0.2v-19.4C112.8,377,114.2,376.9,115.6,376.9z"/>
				<path class="st2" d="M138.1,375.9v21.8c-1.4-0.1-2.9-0.1-4.3-0.2v-21.4C135.2,376,136.7,375.9,138.1,375.9z"/>
				<path class="st2" d="M160.6,375.1v23.3c-1.4,0-2.9-0.1-4.3-0.1v-23C157.7,375.2,159.1,375.2,160.6,375.1z"/>
				<path class="st2" d="M183,374.6v24.3c-1.4,0-2.9-0.1-4.3-0.1v-24.2C180.2,374.7,181.6,374.6,183,374.6z"/>
				<path class="st2" d="M205.5,374.2v25.1c-1.4,0-2.9,0-4.3-0.1v-25C202.7,374.3,204.1,374.2,205.5,374.2z"/>
				<path class="st2" d="M228,374v25.5c-1.4,0-2.9,0-4.3,0V374C225.1,374,226.6,374,228,374z"/>
				<path class="st2" d="M250.5,373.9v25.7H250c-1.3,0-2.6,0-3.8,0v-25.7c1.3,0,2.5,0,3.8,0H250.5z"/>
				<path class="st2" d="M272.9,374v25.5c-1.4,0-2.9,0-4.3,0V374C270.1,374,271.5,374,272.9,374z"/>
				<path class="st2" d="M295.4,374.2v25.1c-1.4,0-2.9,0-4.3,0.1v-25.2C292.5,374.2,294,374.2,295.4,374.2z"/>
				<path class="st2" d="M317.9,374.6v24.3c-1.4,0-2.8,0.1-4.3,0.1v-24.5C315,374.6,316.4,374.6,317.9,374.6z"/>
				<path class="st2" d="M340.3,375.2v23.2c-1.4,0-2.8,0.1-4.3,0.1v-23.4C337.5,375.1,338.9,375.1,340.3,375.2z"/>
				<path class="st2" d="M362.8,375.9v21.7c-1.4,0.1-2.8,0.1-4.3,0.2v-22C360,375.8,361.4,375.9,362.8,375.9z"/>
				<path class="st2" d="M385.3,376.9v19.7c-1.4,0.1-2.8,0.1-4.3,0.2v-20.1C382.4,376.8,383.9,376.8,385.3,376.9z"/>
				<path class="st2" d="M407.7,378.2v17.1c-1.4,0.1-2.8,0.2-4.3,0.3V378C404.9,378.1,406.3,378.1,407.7,378.2z"/>
				<path class="st2" d="M430.2,380.1v13.4c-1.4,0.1-2.8,0.3-4.3,0.4v-14.2C427.4,379.8,428.8,379.9,430.2,380.1z"/>
				<path class="st2" d="M452.7,383.1v7.3c-1.3,0.3-2.7,0.5-4.3,0.8v-8.8C450,382.6,451.4,382.9,452.7,383.1z"/>
			</g>
		</g>
		<path class="st2" d="M435.3,386.8c0,2.7-83.9,5-187.5,5s-187.5-2.2-187.5-5c0-2.7,83.9-5,187.5-5S435.3,384,435.3,386.8z"/>
	</g>
	<g>
		<path class="st3" d="M159.8,340.8c-0.3,1.2-1.1,1.4-1.1,1.4c-6.1-1.8-9.8-4.9-11.9-7.7c-2.4-3.2-2.9-6-2.9-6s-17.5-0.4-16.6-10.9
			c0.7-8,13-3.1,21.8,4.6c2.8,2.4,5.2,5.1,6.9,7.8c0.4,0.7,0.8,1.4,1.2,2.1C159.8,337,160.1,339.5,159.8,340.8z"/>
		<path class="st4" d="M159.8,340.8c-0.3,1.2-1.1,1.4-1.1,1.4c-6.1-1.8-9.8-4.9-11.9-7.7c2.2-4.4,2.4-9.7,2.3-12.3
			c2.8,2.4,5.2,5.1,6.9,7.8c0.4,0.7,0.8,1.4,1.2,2.1C158.1,335.1,159,338.4,159.8,340.8z"/>
		<path class="st5" d="M159.8,339.2c-3.7-14.5-23.6-20.6-23.6-20.6"/>
		<path class="st3" d="M177.2,324.2c0,0,0.2,6.6-5.3,13.5c-2.3,2.9-5.6,5.8-10.2,8.3c-0.3,0.2-0.6,0.3-0.9,0.5c0,0-0.9-0.1-1.6-1.2
			c-1.1-1.7-1.6-5.9,2.2-15.9c0.9-2.3,2.1-4.6,3.5-6.9c9.3-14.9,28.8-29.2,32.1-17.1C200.7,319.3,177.2,324.2,177.2,324.2z"/>
		<path class="st4" d="M171.9,337.7c-2.3,2.9-5.6,5.8-10.2,8.3c-0.9-0.2-1.7-0.5-2.6-0.7c-1.1-1.7-1.6-5.9,2.2-15.9
			c0.9-2.3,2.1-4.6,3.5-6.9C164.9,331.7,168.6,335.9,171.9,337.7z"/>
		<path class="st5" d="M160.8,342.6c3.6-25.4,25.3-35.6,31.5-37.9"/>
		<path class="st6" d="M157.7,338.3c-13-17.7-5.7-26.8-3.6-25.8c-0.1-7.6,9.3-19.2,13-14c3.7,5.3-5.8,30.7-6,40.3
			c-0.2,9.5-2,3.2-2,3.2"/>
		<path class="st5" d="M163.7,300.8c-8.7,22.2-4.3,41.8-4.3,41.8"/>
		<g>
			<path class="st7" d="M172.1,387.6h-22.5c-4.4,0-7.7-3.9-7.1-8.2l1.4-9l0.3-1.8l0.9-6.1l0.3-1.8l0.9-6.1l0.3-1.8l1-6.4
				c0.5-3.5,3.5-6,7.1-6H167c3.5,0,6.5,2.6,7.1,6l1,6.4l0.3,1.8l0.9,6.1l0.3,1.8l0.9,6.1l0.3,1.8l1.4,9
				C179.8,383.6,176.5,387.6,172.1,387.6z"/>
			<polygon class="st0" points="177.7,370.3 143.9,370.3 144.2,368.5 177.5,368.5 			"/>
			<polygon class="st0" points="176.5,362.4 145.1,362.4 145.4,360.6 176.2,360.6 			"/>
			<polygon class="st0" points="175.3,354.6 146.3,354.6 146.6,352.8 175,352.8 			"/>
		</g>
	</g>
	<g>
		<g>
			<polyline class="st8" points="125.1,275.2 127.1,372.7 144.6,372.7 152.7,246.3 128.4,240.2 			"/>
			<polyline class="st8" points="104,246.3 91,372.7 108.5,372.7 136.3,238.9 118.2,240 			"/>
			<g>
				<path class="st9" d="M152.6,243l0.1,3.2c0,0-48.7,1.3-48.7,0c0-0.3,0.1-1.5,0.3-3.2c0.1-0.8,0.2-1.8,0.3-2.8
					c0.7-7,1.9-17.5,1.9-17.5l-9-9.2c0,0-3.3-16.7-2.1-25.4c1.2-8.6,21.3-12.1,30.8-11.6c9.5,0.5,23.2,2.2,27.6,7.6
					c4.5,5.3,10.7,22,10.7,22l-12.3,4.2l0.4,29.9L152.6,243z"/>
				<path class="st10" d="M152.6,243h-48.4c0.1-0.8,0.2-1.8,0.3-2.8h48.1L152.6,243z"/>
				<line class="st11" x1="151.3" y1="211.7" x2="149.3" y2="191.8"/>
				<g>
					<path class="st12" d="M141.5,159c0.5-10.4-0.4-15.3-6.7-16"/>
					<path class="st8" d="M145.4,164.1c-0.3,3.8-3.4,6.7-6.9,6.4c-3.5-0.3-6.1-3.7-5.7-7.5c0.3-3.8,3.4-6.7,6.9-6.4
						C143.1,157,145.7,160.3,145.4,164.1z"/>
					<g>
						<path class="st13" d="M140.7,148.7c-2.2-6.9-18.5-8.4-23.6-3.5c-5.1,4.9-2.9,11.6-2.1,14c0.8,2.3,6.7,6.4,6.7,6.4l10-0.8
							c0,0,4.3-3.4,4.4-3.7c0.1-0.4,2.3-6.6,2.3-6.6l1.5-2.8"/>
						<g>
							<g>
								<path class="st13" d="M121.7,171.7l5.9-6.6l5-10.2c-4.4,1.6-10.3,1.6-10.3,1.6l-2,7.4l-1.2-6.8l-1.4-3.4
									c-1.2-0.4-2.3-0.9-3.2-1.4c0,0,0,0,0,0C113.6,160.9,118.2,170.4,121.7,171.7z"/>
								<g>
									<path class="st14" d="M121.2,170.4v8.2c0,3,4.1,5.5,7.1,5.5c2.9,0,3.6-2.2,3.9-5c0-0.2,0-0.3,0-0.5v-8.2H121.2z"/>
									<path class="st15" d="M121.2,170.4v3.3c2,1.9,6.2,5.4,11,5.5c0-0.2,0-0.3,0-0.5v-8.2H121.2z"/>
									<path class="st14" d="M120.7,152.8l3.8-5.7c0,0,13.2,0.7,13.9,0.8c0.7,0,1.5,1.9,1.5,1.9l0.3,1.5l-1.8,3.7l-7.6,1.8"/>
									<path class="st14" d="M140.1,151.5V167c0,0,0,0,0,0c0,2.3-1,4.5-2.7,6.1c-0.2,0.2-0.4,0.4-0.7,0.6l-1.1,0.8
										c-0.2,0.2-0.4,0.3-0.7,0.4c-1.8,1.1-4.1,1.2-6.1,0.3l-4.4-1.9c-0.8-0.4-1.6-0.9-2.2-1.5c-0.6-0.5-1.1-1.2-1.5-1.9
										c0,0,0,0,0,0c-0.2-0.4-0.4-0.8-0.6-1.3c0-0.1,0-0.1-0.1-0.2v0c0,0,0,0,0,0s0,0,0,0c0,0,0,0,0,0c-0.2-0.8-0.4-1.6-0.4-2.4
										v-14.5H140.1z"/>
									<path class="st13" d="M140.1,167c0,2.3-1,4.5-2.7,6.1c-0.2,0.2-0.4,0.4-0.7,0.6l-1.1,0.8c-0.2,0.2-0.4,0.3-0.7,0.4
										c-1.8,1.1-4.1,1.2-6.1,0.3l-4.4-1.9c-0.8-0.4-1.6-0.9-2.2-1.5c-0.6-0.5-1.1-1.2-1.5-1.9c0,0,0,0,0,0
										c-0.2-0.4-0.4-0.8-0.6-1.3c0-0.1,0-0.1-0.1-0.2v0c0,0,0,0,0,0s0,0,0,0c0,0,0,0,0,0c-0.2-0.8-0.4-1.6-0.4-2.4v-6.8l0.8-0.8
										l3.1,10.5c0,0,3-1.8,5.1-1.4c2.1,0.4,5.4,1.2,5.7,1.9c0.3,0.7,0.5,2.3,0.5,2.3S137.9,171.6,140.1,167z"/>
									<path class="st14" d="M120.4,163c-0.5-5-7.3-4.9-7-0.6c0.4,4.3,6.4,8.4,8.9,2.9"/>
									<path class="st16" d="M118.8,165.6c-0.6-3.1-3.4-3.7-3.4-3.7"/>
									<path class="st17" d="M131.6,159.2l2.1,5.8c0.2,0.6-0.2,1.2-0.8,1.2l-2.1,0.2"/>
									<ellipse class="st8" cx="126.4" cy="162.4" rx="0.8" ry="1.2"/>
									<ellipse class="st8" cx="136.7" cy="162.4" rx="0.8" ry="1.2"/>
									<path class="st18" d="M128.2,158.3c0,0-1.9-0.6-3.8,0.3"/>
									<path class="st18" d="M134.6,158.3c0,0,1.9-0.6,3.8,0.3"/>
									<path class="st19" d="M128,169.4c-0.2,1.1,0.6,2.1,1.7,2.3c1.1,0.2,2.1-0.6,2.3-1.7"/>
								</g>
							</g>
						</g>
						<path class="st13" d="M119.9,161.3c4.2-6.5,0.9-7.4,2.4-10.5c1.5-3.1,4.7,1.8,8.8,1.9c4.1,0.1,4.6-2.9,7.3-2.5
							c2.3,0.3,1.8,5.3,1.8,5.3s1.3-5.1,0.6-6.8c-0.8-1.7-16.3-3.4-20.1-1c-3.8,2.4-3.9,6.7-3.9,6.7s1.5,3.1,1.5,3.3"/>
					</g>
					<path class="st8" d="M123.4,162.5c0.7,3.8-1.6,7.3-5.1,7.9c-3.5,0.6-6.8-2-7.5-5.8c-0.7-3.8,1.6-7.3,5.1-7.9
						C119.4,156.1,122.8,158.7,123.4,162.5z"/>
					<path class="st20" d="M121.5,162.8c0.4,2.6-1.1,5-3.5,5.5c-2.4,0.4-4.7-1.4-5.1-4c-0.4-2.6,1.1-5,3.5-5.5
						C118.7,158.5,121,160.2,121.5,162.8z"/>
					<path class="st12" d="M116.8,162.6c0,0-3.1-23.7,19.3-19.3"/>
				</g>
				<path class="st8" d="M158.3,234.1h-15c-0.9,0-1.5-0.7-1.3-1.6l6.2-26.7c0.2-0.9,1.1-1.6,2-1.6h15c0.9,0,1.5,0.7,1.3,1.6
					l-6.2,26.7C160.2,233.4,159.3,234.1,158.3,234.1z"/>
				<path class="st20" d="M160.9,234.1h-15c-0.9,0-1.5-0.7-1.3-1.6l6.2-26.7c0.2-0.9,1.1-1.6,2-1.6h15c0.9,0,1.5,0.7,1.3,1.6
					l-6.2,26.7C162.8,233.4,161.8,234.1,160.9,234.1z"/>
				<path class="st14" d="M111,210.8l1.8,10.2l24.1-1.4c0,0,5.1-4.2,7-4.7s13.8-0.9,13.8,1c0,1.9-5.3,2.4-5.2,2.4
					c0.2,0,5.7-1.5,5.8,1c0.1,2.6-4.8,2.8-4.8,2.8s3.9-0.9,4.1,1.2c0.2,2.1-3.9,2.4-3.9,2.4s2.9-0.4,3,1.1c0.1,1.5-2.8,1.7-6,1.7
					s-13.1,0-13.1,0l-26.3,5.9c-4.8,1.1-9.5-1.9-10.5-6.7l-3.2-14.2L111,210.8z"/>
				<line class="st16" x1="112.8" y1="221" x2="106.6" y2="221.9"/>
				<path class="st14" d="M167.4,214.9c0,0-4.6-0.3-5.3,1.5c-0.7,1.8,3.7,2.6,3.7,2.6s-4.8-0.4-4.4,1.5c0.4,1.8,3.9,1.8,3.9,1.8
					s-5.7-0.8-4.7,1.5c1,2.3,2.7,2.6,2.7,2.6s-3.9-1.7-3.7,0c0.1,1.7,5,3.3,6.6,1.4C167.7,226.1,172,214.8,167.4,214.9z"/>
				<line class="st11" x1="111" y1="210.8" x2="109.6" y2="195"/>
			</g>
			<polyline class="st21" points="125.6,290.2 130.2,267.9 136.3,266.8 			"/>
			<path class="st22" d="M91,372.7l-19.3,10.4c-1.8,1-1.1,3.7,0.9,3.7h36.2c1.2,0,2.2-1.1,1.9-2.3l-2.2-11.8H91z"/>
			<path class="st22" d="M144.6,372.7l19.3,10.4c1.8,1,1.1,3.7-0.9,3.7h-36.2c-1.2,0-2.2-1.1-1.9-2.3l2.2-11.8H144.6z"/>
		</g>
		<path class="st23" d="M116.8,169.9c0,31.2,1.4,46.2,11.1,45.9c9.7-0.4,7.2-14.7,14.7-15.7c7.5-1,8.4,4.9,8.4,4.9"/>
	</g>
	<g>
		<rect x="265.4" y="323" class="st24" width="5.6" height="64.5"/>
		<rect x="248.5" y="381.5" class="st24" width="39.4" height="6.1"/>
		<polyline class="st24" points="317.7,244.9 258.8,244.9 257.5,292.9 236.5,320.4 233.8,325.4 232.4,328 260.4,328 278.9,320.4 
			294.9,312.5 302.2,293.1 304.4,286.4 		"/>
		<g>
			<path class="st25" d="M259,328c-1.7,0-3.2-1.2-3.5-2.9c-0.3-1.9,1-3.7,2.9-4l23-3.7c6-1,11-5.2,13-10.9l20.2-59.1
				c0.6-1.8,2.6-2.8,4.4-2.2c1.8,0.6,2.8,2.6,2.2,4.4l-20.2,59.1c-2.8,8.2-9.9,14.2-18.5,15.6l-23,3.7C259.4,328,259.2,328,259,328z
				"/>
		</g>
		<polygon class="st0" points="207.3,387.6 203,387.6 219,289 223.3,289 		"/>
		<g>
			<path class="st8" d="M275.1,290.4V311c0,2.5-1.8,4.6-4.2,4.9l-51.2,11l-11.1,45.4h-18.8l7.3-53.2c0.1-0.9,0.3-1.8,0.6-2.6
				c1.2-4.3,3.9-8,7.6-10.4c1.3-0.9,2.8-1.6,4.3-2.2l52-18.3L275.1,290.4z"/>
			<path class="st8" d="M296.4,290.4v9c0,9.1-6.7,16.9-15.8,18.2l-32.8,4.7v50.1h-18.9l-7.3-52.1l-0.2-1.6c-0.6-4.1,0.8-8.1,3.5-11
				c1.4-1.6,3.3-2.8,5.4-3.5l52.5-18.5L296.4,290.4z"/>
			<g>
				<polyline class="st15" points="237.6,257.2 235.8,268.8 207.7,275.2 209.6,283.8 246.3,281.1 251.4,260.4 252.3,251.4 
					240.3,250.7 				"/>
				<path class="st26" d="M300.6,257.9l-3.5,4.5l-1.3,1.7l0,0.5l0.1,5.7l0,2.1l0.4,17.9h-48.6v-31.1l-10.2-2c0,0,1.7-10,6-20.3
					c4.3-10.3,12.7-10.7,22.2-13.8c9.5-3.1,28.9-1.2,34.9,6.2S300.6,257.9,300.6,257.9z"/>
				<g>
					<polygon class="st27" points="295.8,264.1 295.8,264.6 247.8,264.6 247.8,262.4 297.1,262.4 					"/>
					<polygon class="st27" points="296,272.4 247.8,272.4 247.8,270.3 295.9,270.3 					"/>
				</g>
				<path class="st14" d="M287.3,255.4l-1.9,11.9l-23.2,4.5c0,0-6.6-2.7-8.9-2.5c-2.3,0.2-11.9,7.8-11.5,8.8c0.4,1,7.1-2.4,7.1-2.4
					s-4.4,3-3.6,4.8c0.8,1.8,6.7-3.4,6.7-3.4s-1.6,2-1.2,3.9c0.4,1.8,5.1-2.9,5.1-2.7c0,0.1-1.1,3.8-0.2,4.5
					c0.9,0.7,4.3-2.9,4.3-2.9l31.3-0.9c2.9-0.1,5.4-2.2,5.9-5l3.1-16L287.3,255.4z"/>
				<line class="st28" x1="287.3" y1="255.4" x2="289.8" y2="238.1"/>
				<line class="st28" x1="247.8" y1="259.2" x2="247.8" y2="242.2"/>
				<line class="st16" x1="285.4" y1="267.3" x2="289.8" y2="270.3"/>
			</g>
			<g>
				<g>
					<path class="st13" d="M277.1,215.4c0,0-0.1,0-0.1,0c-3.5,1.1-6.6-2.8-6.6-2.8l-11.8-10.8c-4-5.2-2.3-12,3.5-10.3
						c2.7-6.9,21.2-4.4,22.1,4.3c0,0,0,0,0,0C285.2,204.7,280.6,214.2,277.1,215.4z"/>
					<path class="st13" d="M277.1,215.4l-5.9-6.6l-5-10.2c4.4,1.6,10.3,1.6,10.3,1.6l2,7.4l1.2-6.8l1.4-3.4c1.2-0.4,2.3-0.9,3.1-1.4
						c0,0,0,0,0,0C285.2,204.7,280.6,214.2,277.1,215.4z"/>
					<g>
						<path class="st14" d="M277.5,214.2v8.2c0,3-4.1,5.5-7.1,5.5c-2.9,0-3.6-2.2-3.9-5c0-0.2,0-0.3,0-0.5v-8.2H277.5z"/>
						<path class="st15" d="M277.5,214.2v3.3c-2,1.9-6.2,5.4-11,5.5c0-0.2,0-0.3,0-0.5v-8.2H277.5z"/>
						<path class="st14" d="M278.9,195.2v14.5c0,0.8-0.1,1.6-0.4,2.4c0,0,0,0,0,0c0,0,0,0,0,0s0,0,0,0v0c0,0,0,0.1-0.1,0.2
							c-0.1,0.4-0.3,0.9-0.6,1.3c0,0,0,0,0,0c-0.4,0.7-0.9,1.3-1.5,1.9c-0.6,0.6-1.4,1.1-2.2,1.5l-4.4,1.9c-2,0.9-4.2,0.7-6.1-0.3
							c-0.2-0.1-0.4-0.3-0.6-0.4l-1.1-0.8c-0.2-0.2-0.5-0.4-0.7-0.6c-1.7-1.6-2.7-3.8-2.7-6.1v-15.5H278.9z"/>
						<path class="st14" d="M278.4,206.7c0.5-5,7.3-4.9,7-0.6c-0.4,4.3-6.4,8.4-8.9,2.9"/>
						<path class="st16" d="M279.9,209.4c0.6-3.1,3.4-3.7,3.4-3.7"/>
						<path class="st17" d="M267.2,203.8l-2.1,5.8c-0.2,0.6,0.2,1.2,0.8,1.2l2.1,0.2"/>
						<path class="st8" d="M273.2,206.1c0,0.7-0.4,1.2-0.8,1.2c-0.5,0-0.8-0.5-0.8-1.2c0-0.7,0.4-1.2,0.8-1.2
							C272.8,204.9,273.2,205.4,273.2,206.1z"/>
						<ellipse class="st8" cx="262.1" cy="206.1" rx="0.8" ry="1.2"/>
						<path class="st18" d="M270.5,202c0,0,1.9-0.6,3.8,0.3"/>
						<path class="st18" d="M264.2,202c0,0-1.9-0.6-3.8,0.3"/>
						<path class="st13" d="M276.4,215.5c-0.6,0.6-1.4,1.1-2.2,1.5l-4.4,1.9c-2,0.9-4.2,0.7-6.1-0.3c0-1.3,0.2-4.6,1.9-5.6
							c2.1-1.2,5.5-2.3,7.4-0.9C274.2,212.9,275.5,214.4,276.4,215.5z"/>
						<path class="st19" d="M271.1,212.6c0.3,1.4-0.5,2.7-1.9,3c-1.4,0.3-2.7-0.5-3-1.9"/>
						<path class="st13" d="M278.5,212.2C278.5,212.2,278.5,212.2,278.5,212.2c0,0.1,0,0.1-0.1,0.2c-0.1,0.2-0.3,0.7-0.6,1.3
							c0,0,0,0,0,0c-0.4,0.7-0.9,1.3-1.5,1.9c-0.6,0.6-1.4,1.1-2.2,1.5l-4.4,1.9c-2,0.9-4.2,0.7-6.1-0.3c-0.2-0.1-0.4-0.3-0.6-0.4
							l-1.1-0.8c-0.2-0.2-0.5-0.4-0.7-0.6c1,0.1,2.2,0.1,3-1l9.5-1.7C277.2,214.8,278.3,212.5,278.5,212.2
							C278.5,212.2,278.5,212.2,278.5,212.2z"/>
					</g>
					<path class="st13" d="M282.8,193.4l-1.7,3.9l-1.4,3.4l-1.2,6.8l-2-7.4c0,0-5.9-0.1-10.3-1.6c-2.1-0.7-3.9-1.8-4.6-3.4l-2.9,6.2
						l-1.2-7.1l4.6-0.5c0,0,6.6-1.1,9.8-1.5C275.1,191.8,282.8,193.4,282.8,193.4z"/>
				</g>
				<path class="st13" d="M281.1,197.4l-1.4,3.4l-1.2,6.8l-2-7.4c0,0-5.9-0.1-10.3-1.6C273,199.3,277.8,198.6,281.1,197.4z"/>
			</g>
			<path class="st21" d="M223.3,330.1c0,0-3.1-16.9,1.3-22.2c5.9-7,31.8-13,31.8-13"/>
			<line class="st21" x1="247.8" y1="322.2" x2="248.3" y2="315"/>
			<line class="st21" x1="219.7" y1="327" x2="220.7" y2="320.4"/>
			<path class="st29" d="M207.2,310.7c0,3.6-2.9,6.5-6.5,6.5c-1.1,0-2.1-0.3-3-0.8c1.2-4.3,3.9-8,7.6-10.4
				C206.4,307.3,207.2,308.9,207.2,310.7z"/>
			<path class="st29" d="M229.6,313.9c0,3.6-2.9,6.5-6.5,6.5c-0.5,0-1-0.1-1.5-0.2l-0.2-1.6c-0.6-4.1,0.8-8.1,3.5-11
				C227.6,308.4,229.6,310.9,229.6,313.9z"/>
			<path class="st22" d="M189.7,372.3l-20.8,11.2c-1.9,1-1.2,4,1,4h39c1.3,0,2.3-1.2,2.1-2.5l-2.4-12.7H189.7z"/>
			<path class="st29" d="M229.1,372.3l-20.8,11.2c-1.9,1-1.2,4,1,4h39c1.3,0,2.3-1.2,2.1-2.5l-2.4-12.7H229.1z"/>
		</g>
		<rect x="200.6" y="283.8" class="st0" width="98.9" height="5.2"/>
		<rect x="166.2" y="283.8" class="st7" width="89.2" height="5.2"/>
		<g>
			<rect x="168.5" y="330.1" class="st0" width="84.4" height="3.3"/>
			<g>
				<polygon class="st0" points="162.7,387.6 158.4,387.6 174.4,289 178.7,289 				"/>
				<polygon class="st0" points="258.8,387.6 263.1,387.6 247.1,289 242.9,289 				"/>
			</g>
		</g>
		<g>
			<g>
				<polygon class="st0" points="303.4,387.6 307.7,387.6 291.8,289 287.5,289 				"/>
			</g>
		</g>
		<g>
			<path class="st8" d="M229.4,241.2h-52.9c-1.3,0-2.1,1-1.9,2.3l6.3,38c0.2,1.3,1.4,2.3,2.7,2.3h52.9c1.3,0,2.1-1,1.9-2.3l-6.3-38
				C231.9,242.3,230.7,241.2,229.4,241.2z"/>
			<path class="st30" d="M211.4,262.5c0.4,2.8-1.4,5-4.2,5c-2.8,0-5.3-2.2-5.8-5c-0.4-2.8,1.4-5,4.2-5S211,259.8,211.4,262.5z"/>
			<path class="st8" d="M268.9,279.6h-62.7c-1.2,0-2.1,1-2.1,2.1l0,0c0,1.2,1,2.1,2.1,2.1h62.7c1.2,0,2.1-1,2.1-2.1l0,0
				C271,280.5,270.1,279.6,268.9,279.6z"/>
		</g>
	</g>
	<g>
		<path class="st3" d="M309.8,340.8c-0.3,1.2-1.1,1.4-1.1,1.4c-6.1-1.8-9.8-4.9-11.9-7.7c-2.4-3.2-2.9-6-2.9-6s-17.5-0.4-16.6-10.9
			c0.7-8,13-3.1,21.8,4.6c2.8,2.4,5.2,5.1,6.9,7.8c0.4,0.7,0.8,1.4,1.2,2.1C309.8,337,310.1,339.5,309.8,340.8z"/>
		<path class="st4" d="M309.8,340.8c-0.3,1.2-1.1,1.4-1.1,1.4c-6.1-1.8-9.8-4.9-11.9-7.7c2.1-4.4,2.4-9.7,2.3-12.3
			c2.8,2.4,5.2,5.1,6.9,7.8c0.4,0.7,0.8,1.4,1.2,2.1C308,335.1,309,338.4,309.8,340.8z"/>
		<path class="st5" d="M309.7,339.2c-3.7-14.5-23.6-20.6-23.6-20.6"/>
		<path class="st3" d="M327.2,324.2c0,0,0.2,6.6-5.3,13.5c-2.3,2.9-5.6,5.8-10.2,8.3c-0.3,0.2-0.6,0.3-0.9,0.5c0,0-0.9-0.1-1.6-1.2
			c-1.1-1.7-1.6-5.9,2.2-15.9c0.9-2.3,2.1-4.6,3.5-6.9c9.3-14.9,28.8-29.2,32.1-17.1C350.7,319.3,327.2,324.2,327.2,324.2z"/>
		<path class="st4" d="M321.9,337.7c-2.3,2.9-5.6,5.8-10.2,8.3c-0.9-0.2-1.7-0.5-2.6-0.7c-1.1-1.7-1.6-5.9,2.2-15.9
			c0.9-2.3,2.1-4.6,3.5-6.9C314.9,331.7,318.6,335.9,321.9,337.7z"/>
		<path class="st5" d="M310.8,342.6c3.6-25.4,25.3-35.6,31.5-37.9"/>
		<path class="st6" d="M307.7,338.3c-13-17.7-5.7-26.8-3.6-25.8c-0.1-7.6,9.3-19.2,13-14c3.7,5.3-5.8,30.7-6,40.3
			c-0.2,9.5-2,3.2-2,3.2"/>
		<path class="st5" d="M313.7,300.8c-8.7,22.2-4.3,41.8-4.3,41.8"/>
		<g>
			<path class="st7" d="M322.1,387.6h-22.5c-4.4,0-7.7-3.9-7.1-8.2l1.4-9l0.3-1.8l0.9-6.1l0.3-1.8l0.9-6.1l0.3-1.8l1-6.4
				c0.5-3.5,3.5-6,7.1-6h12.3c3.5,0,6.5,2.6,7.1,6l1,6.4l0.3,1.8l0.9,6.1l0.3,1.8l0.9,6.1l0.3,1.8l1.4,9
				C329.8,383.6,326.4,387.6,322.1,387.6z"/>
			<polygon class="st0" points="327.7,370.3 293.9,370.3 294.2,368.5 327.4,368.5 			"/>
			<polygon class="st0" points="326.5,362.4 295.1,362.4 295.4,360.6 326.2,360.6 			"/>
			<polygon class="st0" points="325.3,354.6 296.3,354.6 296.6,352.8 325,352.8 			"/>
		</g>
	</g>
	<g>
		<path class="st13" d="M360.9,147.1c-5.5,2.8,1.9,14.6-2.4,22.3c-4.2,7.7-7.3,7.1-5.9,12.6c1.4,5.5,26.3,15.7,41.7,10.8
			c15.4-5-2-10.4,0.6-18c2.6-7.6-6.7-7.7-5-15.6c1.7-7.9-2.9-15-10.4-16c-7.5-1-11.9,8.6-11.9,8.6"/>
		<g>
			<g>
				<polygon class="st8" points="375.1,275.2 374.7,291.2 374.7,291.2 373.3,360.6 354.8,360.6 347.5,246.3 364.5,242 371.8,240.2 
									"/>
				<polygon class="st8" points="407.9,360.6 389.2,360.6 374.7,291.2 374.7,291.2 364.5,242 363.9,238.9 382,240 396.2,246.3 				
					"/>
				<g>
					<g>
						<path class="st31" d="M402.7,213.5l-2.4,2.5l-3.8,3.9l-2.7,2.8c0,0,0,0.1,0,0.4c0.1,0.7,0.2,2.1,0.4,3.9c0.1,1,0.2,2,0.4,3.2
							c0.1,1.2,0.3,2.6,0.4,3.9c0.1,1.1,0.2,2.1,0.3,3.2c0.1,1,0.2,2,0.3,2.9c0,0.4,0.1,0.7,0.1,1c0.1,0.6,0.1,1.3,0.2,1.8
							c0.2,1.7,0.3,2.9,0.3,3.2c0,1.3-48.7,0-48.7,0l0-3.2l0.2-1.8l0.1-1l0.4-2.9l0.4-3.2l0.5-3.9l0.4-3.2l0.5-3.9l0.2-1.3l-0.4-1.9
							l-0.8-3.9l-1.1-5.7l-12.3-4.2c0,0,6.2-11.8,10.7-17.1c3.3-3.9,11.6-8.6,19.5-10.9c2.8-0.8,5.6-1.4,8.1-1.5
							c2.1-0.1,4.7,0.2,7.5,0.9c10,2.3,22.4,8.9,23.3,15.6C406,201.7,402.7,213.5,402.7,213.5z"/>
						<path class="st32" d="M395.8,241.2h-48l0.1-1l0.4-2.9h47.1c0.1,1,0.2,2,0.3,2.9C395.7,240.6,395.7,240.9,395.8,241.2z"/>
						<path class="st32" d="M395,234.1h-46.3l0.5-3.9h45.4C394.7,231.5,394.9,232.8,395,234.1z"/>
						<path class="st33" d="M394.2,227h-44.6l0.5-3.9h43.7C393.9,223.8,394,225.2,394.2,227z"/>
						<polygon class="st32" points="400.3,216 396.5,219.9 349.9,219.9 349.1,216 						"/>
					</g>
					<path class="st34" d="M381.6,177.4c-0.2,3.3-2.4,9.6-9.7,9.1c-7.5-0.5-6.5-5.8-5.9-8.4c2.8-0.8,5.6-1.4,8.1-1.5
						C376.2,176.5,378.8,176.8,381.6,177.4z"/>
					<path class="st35" d="M349.3,212.6c0,0-1.5-6.4-1.1-12.1c0.5-5.7,5.8-8.1,6.8-9.5"/>
					<g>
						<path class="st12" d="M358.7,159c-0.5-10.4,0.4-15.3,6.7-16"/>
						<path class="st8" d="M354.8,164.1c0.3,3.8,3.4,6.7,6.9,6.4c3.5-0.3,6.1-3.7,5.7-7.5s-3.4-6.7-6.9-6.4
							C357.1,157,354.5,160.3,354.8,164.1z"/>
						<g>
							<path class="st13" d="M359.8,148.4c2.2-6.9,18.1-8,23.2-3.1c5.1,4.9,2.9,11.6,2.1,14c-0.8,2.3-6.7,6.4-6.7,6.4l-10-0.8
								c0,0-4.3-3.4-4.4-3.7c-0.1-0.4-2.3-6.6-2.3-6.6l-1.5-2.8"/>
							<g>
								<g>
									<path class="st36" d="M378.5,171.7l-6-6.6l-5-10.2c4.4,1.6,10.3,1.6,10.3,1.6l2,7.4l1.2-6.8l1.4-3.4
										c1.2-0.4,2.3-0.9,3.1-1.4c0,0,0,0,0,0C386.6,160.9,382,170.4,378.5,171.7z"/>
									<g>
										<path class="st14" d="M379,170.4v8.2c0,3-4.1,5.5-7.1,5.5c-2.9,0-3.6-2.2-3.9-5c0-0.2,0-0.3,0-0.5v-8.2H379z"/>
										<path class="st15" d="M379,170.4v3.3c-2,1.9-6.2,5.4-11,5.5c0-0.2,0-0.3,0-0.5v-8.2H379z"/>
										<path class="st14" d="M379.5,152.8l-3.8-5.7c0,0-13.2,0.7-13.9,0.8c-0.7,0-1.5,1.9-1.5,1.9l-0.3,1.5l1.8,3.7l7.6,1.8"/>
										<path class="st14" d="M360.1,151.5V167c0,0,0,0,0,0c0,2.3,1,4.5,2.7,6.1c0.2,0.2,0.4,0.4,0.7,0.6l1.1,0.8
											c0.2,0.2,0.4,0.3,0.6,0.4c1.8,1.1,4.1,1.2,6.1,0.3l4.4-1.9c0.8-0.4,1.6-0.9,2.2-1.5c0.6-0.5,1.1-1.2,1.5-1.9c0,0,0,0,0,0
											c0.2-0.4,0.4-0.8,0.6-1.3c0-0.1,0-0.1,0.1-0.2v0c0,0,0,0,0,0s0,0,0,0c0,0,0,0,0,0c0.2-0.8,0.4-1.6,0.4-2.4v-14.5H360.1z"
											/>
										<path class="st13" d="M360.1,148.5c1.7,6.4,21.3,10.1,21.3,10.1v-10.1l-6.3-3.4l-9.4,0.5"/>
										<path class="st14" d="M379.8,163c0.5-5,7.3-4.9,7-0.6c-0.4,4.3-6.4,8.4-8.9,2.9"/>
										<path class="st16" d="M381.3,165.6c0.6-3.1,3.4-3.7,3.4-3.7"/>
										<path class="st17" d="M368.6,159.2l-2.1,5.8c-0.2,0.6,0.2,1.2,0.8,1.2l2.1,0.2"/>
										<ellipse class="st8" cx="373.8" cy="162.4" rx="0.8" ry="1.2"/>
										<path class="st8" d="M364.4,162.4c0,0.7-0.4,1.2-0.8,1.2c-0.5,0-0.8-0.5-0.8-1.2s0.4-1.2,0.8-1.2
											C364,161.1,364.4,161.7,364.4,162.4z"/>
										<path class="st18" d="M371.9,158.3c0,0,1.9-0.6,3.8,0.3"/>
										<path class="st18" d="M365.6,158.3c0,0-1.9-0.6-3.8,0.3"/>
										<path class="st13" d="M372.2,169.4c0.2,1.1-0.6,2.1-1.7,2.3c-1.1,0.2-2.1-0.6-2.3-1.7"/>
									</g>
								</g>
							</g>
						</g>
						<path class="st8" d="M376.8,162.5c-0.7,3.8,1.6,7.3,5.1,7.9c3.5,0.6,6.8-2,7.5-5.8c0.7-3.8-1.6-7.3-5.1-7.9
							C380.8,156.1,377.4,158.7,376.8,162.5z"/>
						<path class="st20" d="M378.7,162.8c-0.4,2.6,1.1,5,3.5,5.5c2.4,0.4,4.7-1.4,5.1-4c0.4-2.6-1.1-5-3.5-5.5
							C381.5,158.5,379.2,160.2,378.7,162.8z"/>
						<path class="st12" d="M383.4,162.6c0,0,3.1-23.7-19.3-19.3"/>
					</g>
					<g>
						<path class="st8" d="M341.8,234.1h15c0.9,0,1.5-0.7,1.3-1.6l-6.2-26.7c-0.2-0.9-1.1-1.6-2-1.6h-34.6c-0.9,0-1.5,0.7-1.3,1.6
							l6.2,26.7C320.4,233.4,340.9,234.1,341.8,234.1z"/>
						<path class="st20" d="M319.6,234.1h34.6c0.9,0,1.5-0.7,1.3-1.6l-6.2-26.7c-0.2-0.9-1.1-1.6-2-1.6h-34.6
							c-0.9,0-1.5,0.7-1.3,1.6l6.2,26.7C317.8,233.4,318.7,234.1,319.6,234.1z"/>
					</g>
					<path class="st14" d="M389.2,210.8l-1.8,10.2l-24.1-1.4c0,0-5.1-4.2-7-4.7c-1.8-0.5-13.8-0.9-13.8,1c0,1.9,5.3,2.4,5.2,2.4
						c-0.2,0-5.7-1.5-5.8,1c-0.1,2.6,4.8,2.8,4.8,2.8s-3.9-0.9-4.1,1.2c-0.2,2.1,3.9,2.4,3.9,2.4s-2.9-0.4-3,1.1
						c-0.1,1.5,2.8,1.7,6,1.7c3.2,0,13.1,0,13.1,0l26.3,5.9c4.8,1.1,9.5-1.9,10.5-6.7l3.2-14.2L389.2,210.8z"/>
					<line class="st16" x1="387.4" y1="221" x2="393.6" y2="221.9"/>
					<path class="st14" d="M313,214.9c0,0,4.6-0.3,5.3,1.5c0.7,1.8-3.7,2.6-3.7,2.6s4.8-0.4,4.4,1.5s-3.9,1.8-3.9,1.8
						s5.7-0.8,4.7,1.5c-1,2.3-2.7,2.6-2.7,2.6s3.9-1.7,3.7,0c-0.1,1.7-5,3.3-6.6,1.4C312.7,226.1,308.4,214.8,313,214.9z"/>
					<line class="st35" x1="389.2" y1="210.8" x2="390.6" y2="195"/>
				</g>
				<polyline class="st21" points="374.6,290.2 370,267.9 363.9,266.8 				"/>
				<path class="st22" d="M409.2,372.7l19.3,10.4c1.8,1,1.1,3.7-0.9,3.7h-36.2c-1.2,0-2.2-1.1-1.9-2.3l2.2-11.8H409.2z"/>
				<path class="st22" d="M355.6,372.7l-19.3,10.4c-1.8,1-1.1,3.7,0.9,3.7h36.2c1.2,0,2.2-1.1,1.9-2.3l-2.2-11.8H355.6z"/>
			</g>
			<path class="st23" d="M383.4,169.9c0,31.2-1.4,46.2-11.1,45.9c-9.7-0.4-7.2-14.7-14.7-15.7c-7.5-1-8.4,4.9-8.4,4.9"/>
		</g>
		<polygon class="st14" points="373.3,360.6 373.1,372.7 355.5,372.7 354.8,360.6 		"/>
		<polygon class="st14" points="409.2,372.7 391.7,372.7 389.2,360.6 407.9,360.6 		"/>
	</g>
</g>
</svg>
